<?xml version="1.0" encoding="UTF-8" standalone="no"?>
<!-- Copyright 2017 mathsisfun.com -->
<svg xmlns="http://www.w3.org/2000/svg" width="609.3" height="168.9" version="1.1">
<defs>
</defs>
<path d="M 453.6,-0 V 51.9" style="fill:none; stroke:black; stroke-width:1px;"/>
<path d="M 149.6,-0 V 51.9" style="fill:none; stroke:black; stroke-width:1px;"/>
<g transform="matrix(0.5,0,0,0.5,242.564,221.329)"/>
<rect x="1657.7" y="675.1" width="803.5" height="500.8"/>
<path d="m 415.5,55.7 c -3.4,6.4 -6.8,12.7 -10.3,19 -3.4,6.1 -7.1,12 -11.1,17.7 -3.9,5.5 -8.3,11 -13.3,15.4 -0.6,0.5 -1.2,1 -1.8,1.6 v 15.8 h 37.3 V 54.4 c -0.2,0.5 -0.5,0.9 -0.7,1.4 z" style="fill:#0084c8; stroke:white; stroke-width:0.5;"/>
<path d="m 363.6,118.9 c -6.4,2.6 -13,4 -19.8,4.9 -0.7,0 -1.5,0.2 -2.2,0.3 v 1.3 h 37.3 v -15.8 c -4.7,3.9 -9.7,7.2 -15.3,9.5 z" style="fill:#0084c8; stroke:white; stroke-width:0.5;"/>
<path d="m 324.5,125 c -6.7,0.2 -13.5,0.2 -20.2,0.3 h 37.3 v -1.3 c -5.7,0.6 -11.4,0.8 -17.1,1 z" style="fill:#bdc9e1; stroke-width:0.5;"/>
<path d="m 453.2,8.4 c -3.3,0.3 -6.5,1.5 -9.2,3.7 -2.7,2.3 -5.1,4.8 -7.3,7.6 -4.2,5.4 -7.9,11.4 -11.2,17.4 -3.2,5.7 -6.3,11.5 -9.3,17.3 v 70.9 h 37.3 V 8.4 c -0.1,0 -0.2,0 -0.3,0 z" style="fill:#0084c8; stroke:white; stroke-width:0.5;"/>
<path d="m 481.3,36.6 c -3.5,-6.1 -7.1,-12.2 -11.5,-17.7 -2.2,-2.6 -4.5,-5.3 -7.3,-7.2 -2.6,-1.8 -5.7,-3.5 -9,-3.3 V 125.2 h 37.3 V 54.4 c -3.1,-5.9 -6.2,-11.9 -9.6,-17.8 z" style="fill:#0084c8; stroke:white; stroke-width:0.5;"/>
<path d="m 562,123.5 c -6.5,-0.8 -13.1,-2.3 -19.1,-4.9 -5.3,-2.4 -10.3,-5.4 -14.7,-9.2 v 15.8 h 37.3 v -1.3 c -1.2,-0.1 -2.4,-0.2 -3.5,-0.4 z" style="fill:#0084c8; stroke:white; stroke-width:0.5;"/>
<path d="m 525.9,107.4 c -5.1,-4.8 -9.6,-10.3 -13.7,-16.1 -4,-5.7 -7.6,-11.6 -11,-17.7 -3.5,-6.2 -6.9,-12.6 -10.2,-18.9 0,-0 -0.1,-0.2 -0.1,-0.2 v 70.9 h 37.3 v -15.8 c -0.8,-0.7 -1.6,-1.3 -2.3,-2.1 z" style="fill:#0084c8; stroke:white; stroke-width:0.5;"/>
<path d="m 601.8,125.2 c -6.6,-0 -13.2,-0 -19.8,-0.3 -5.5,-0.2 -11,-0.5 -16.5,-1 v 1.3 h 37.3 c -0.3,0 -0.7,0 -1,0 z" style="fill:#bdc9e1; stroke-width:0.5;"/>
<path d="m 304.3,125.2 c 6.7,-0 13.5,-0 20.2,-0.3 6.4,-0.2 12.9,-0.4 19.3,-1.2 6.8,-0.9 13.4,-2.3 19.8,-4.9 6.4,-2.6 12,-6.5 17.2,-11 5,-4.4 9.5,-9.9 13.3,-15.4 4,-5.7 7.7,-11.6 11.1,-17.7 3.6,-6.3 6.9,-12.6 10.3,-19 3.3,-6.3 6.6,-12.5 10,-18.7 3.4,-6 7,-12 11.2,-17.4 2.2,-2.8 4.6,-5.3 7.3,-7.5 2.6,-2.2 5.8,-3.4 9.2,-3.7 3.4,-0.3 6.6,1.5 9.3,3.3 2.8,1.9 5.1,4.6 7.3,7.2 4.4,5.4 8,11.6 11.5,17.7 3.4,5.9 6.5,12 9.7,18 3.3,6.3 6.7,12.7 10.2,18.9 3.4,6.1 7,12 11,17.7 4.1,5.8 8.6,11.3 13.7,16.1 5,4.8 10.8,8.5 17,11.2 6,2.7 12.6,4.1 19.1,4.9 6.6,0.8 13.3,1.2 20,1.4 6.6,0.2 13.2,0.2 19.8,0.3 0.3,0 0.7,0 1,0" style="fill:none; stroke:black; stroke-width:0.38; stroke-linecap:round; stroke-linejoin:round;"/>
<text x="367.7" y="143" style="font-family:Verdana; font-size:14px; stroke-width:0.5;">−2</text>
<text x="406.3" y="143" style="font-family:Verdana; font-size:14px; stroke-width:0.5;">−1</text>
<text x="481.6" y="143" style="font-family:Verdana; font-size:14px; stroke-width:0.5;">+1</text>
<text x="329.9" y="142.9" style="font-family:Verdana; font-size:14px; stroke-width:0.5;">−3</text>
<text x="555.7" y="142.9" style="font-family:Verdana; font-size:14px; stroke-width:0.5;">+3</text>
<text x="518" y="143" style="font-family:Verdana; font-size:14px; stroke-width:0.5;">+2</text>
<path d="m 111.5,55.6 c -3.4,6.4 -6.8,12.7 -10.3,19 -3.4,6.1 -7.1,12 -11.1,17.7 -3.9,5.5 -8.3,11 -13.3,15.4 -0.6,0.5 -1.2,1 -1.8,1.6 v 15.8 H 112.2 V 54.3 c -0.2,0.5 -0.5,0.9 -0.7,1.4 z" style="fill:#9ade00; stroke:white; stroke-width:0.5;"/>
<path d="m 59.6,118.8 c -6.4,2.6 -13,4 -19.8,4.9 -0.7,0 -1.5,0.2 -2.2,0.3 v 1.3 h 37.3 v -15.8 c -4.7,3.9 -9.7,7.2 -15.3,9.5 z" style="fill:#9ade00; stroke:white; stroke-width:0.5;"/>
<path d="m 20.5,124.9 c -6.7,0.2 -13.5,0.2 -20.2,0.3 H 37.6 v -1.3 c -5.7,0.6 -11.4,0.8 -17.1,1 z" style="fill:#bdc9e1; stroke-width:0.5;"/>
<path d="m 149.2,8.3 c -3.3,0.3 -6.5,1.5 -9.2,3.7 -2.7,2.3 -5.1,4.7 -7.3,7.5 -4.2,5.4 -7.9,11.4 -11.2,17.4 -3.2,5.7 -6.3,11.5 -9.3,17.3 v 70.9 h 37.3 V 8.3 c -0.1,0 -0.2,0 -0.3,0 z" style="fill:#9ade00; stroke:white; stroke-width:0.5;"/>
<path d="m 177.3,36.5 c -3.5,-6.1 -7.1,-12.2 -11.5,-17.6 -2.2,-2.6 -4.5,-5.3 -7.3,-7.2 -2.6,-1.8 -5.7,-3.5 -9,-3.3 V 125.1 h 37.3 V 54.3 c -3.1,-5.9 -6.2,-11.9 -9.6,-17.8 z" style="fill:#9ade00; stroke:white; stroke-width:0.5;"/>
<path d="m 258,123.5 c -6.5,-0.8 -13.1,-2.3 -19.1,-4.9 -5.3,-2.4 -10.3,-5.4 -14.7,-9.2 v 15.8 h 37.3 v -1.3 c -1.2,-0.1 -2.4,-0.2 -3.5,-0.4 z" style="fill:#9ade00; stroke:white; stroke-width:0.5;"/>
<path d="m 221.9,107.3 c -5.1,-4.8 -9.6,-10.3 -13.7,-16.1 -4,-5.7 -7.6,-11.6 -11,-17.7 -3.5,-6.2 -6.9,-12.6 -10.2,-18.9 0,-0 -0.1,-0.2 -0.1,-0.2 v 70.9 h 37.3 v -15.8 c -0.8,-0.7 -1.6,-1.3 -2.3,-2.1 z" style="fill:#9ade00; stroke:white; stroke-width:0.5;"/>
<path d="m 297.8,125.1 c -6.6,-0 -13.2,-0 -19.8,-0.3 -5.5,-0.2 -11,-0.5 -16.5,-1 v 1.3 h 37.3 c -0.3,0 -0.7,0 -1,0 z" style="fill:#bdc9e1; stroke-width:0.5;"/>
<path d="m 0.3,125.1 c 6.7,-0 13.5,-0 20.2,-0.3 6.4,-0.2 12.9,-0.4 19.3,-1.3 6.8,-0.9 13.4,-2.3 19.8,-4.9 6.4,-2.6 12,-6.5 17.2,-11 5,-4.4 9.5,-9.9 13.3,-15.4 4,-5.7 7.7,-11.6 11.1,-17.7 3.6,-6.3 6.9,-12.6 10.3,-19 3.3,-6.3 6.6,-12.5 10,-18.7 3.4,-6 7,-12 11.2,-17.4 2.2,-2.8 4.6,-5.3 7.3,-7.5 2.6,-2.2 5.8,-3.4 9.2,-3.7 3.4,-0.3 6.6,1.5 9.3,3.3 2.8,1.9 5.1,4.6 7.3,7.2 4.4,5.4 8,11.6 11.5,17.7 3.4,5.9 6.5,12 9.7,18 3.3,6.3 6.7,12.7 10.2,18.9 3.4,6.1 7,12 11,17.7 4.1,5.8 8.6,11.3 13.7,16.1 5,4.8 10.8,8.5 17,11.2 6,2.7 12.6,4.1 19.1,4.9 6.6,0.8 13.3,1.2 20,1.4 6.6,0.2 13.2,0.2 19.8,0.3 0.3,0 0.7,0 1,0" style="fill:none; stroke:black; stroke-width:0.38; stroke-linecap:round; stroke-linejoin:round;"/>
<text x="62.1" y="142.9" style="font-family:Verdana; font-size:13.3px; stroke-width:0.5;">970</text>
<text x="99.1" y="142.9" style="font-family:Verdana; font-size:13.3px; stroke-width:0.5;">990</text>
<text x="169.1" y="142.9" style="font-family:Verdana; font-size:13.3px; stroke-width:0.5;">1030</text>
<text x="24.9" y="142.9" style="font-family:Verdana; font-size:13.3px; stroke-width:0.5;">950</text>
<text x="243.6" y="142.9" style="font-family:Verdana; font-size:13.3px; stroke-width:0.5;">1070</text>
<text x="206" y="142.9" style="font-family:Verdana; font-size:13.3px; stroke-width:0.5;">1050</text>
<text x="131.7" y="142.9" style="font-family:Verdana; font-size:13.3px; fill:#ff4141; stroke:#ff4141; stroke-width:0.5;">1010</text>
<text x="449.4" y="143.4" style="font-family:Verdana; font-size:14px; fill:#ff4141; stroke:#ff4141; stroke-width:0.5;">0</text>
<path d="m 231.4,49.3 c 10.2,-4.1 21.1,-6.4 31.9,-8.3 25.9,-4.4 52.4,-5.9 78.5,-2.8 12.2,1.4 24.5,2.7 36.2,6.8 -1.2,1.6 -2.4,3.2 -3.5,4.9 -12.8,-4.1 -26.4,-5.4 -39.7,-6.7 -26.9,-2.6 -54,-0.2 -80.4,5 -8.2,1.9 -16.4,3.7 -24.1,7.1 0.4,-2 0.8,-3.9 1.1,-5.9 z" style="color:black; overflow:visible; fill:#ff6600; stroke-width:1.9;"/>
<path d="m 345.8,48.4 c 0.8,-0.2 1.6,-0.2 2.4,-0.4 1.1,-0.2 2.1,-0.4 3.2,-0.5 1.2,-0.3 2.4,-0.5 3.6,-0.6 1.4,-0.2 2.8,-0.4 4.1,-0.6 1.5,-0.2 3.1,-0.4 4.6,-0.6 1.6,-0.2 3.3,-0.3 4.9,-0.3 1.7,-0 3.3,-0 4.9,0 1.6,0 3.2,0.2 4.8,0.4 1.6,0.2 3.2,0.4 4.7,0.7 0,0 -3,5.2 -3,5.2 v 0 c -1.5,-0.2 -3,-0.4 -4.6,-0.6 -1.5,-0.2 -3.1,-0.3 -4.6,-0.3 -1.6,-0 -3.1,-0 -4.7,0 -1.6,0 -3.1,0.2 -4.7,0.4 -1.5,0.2 -3,0.4 -4.5,0.6 -1.4,0.2 -2.8,0.4 -4.1,0.6 -1.2,0.2 -2.4,0.5 -3.6,0.6 -1,0.2 -2.1,0.4 -3.1,0.6 -0.8,0.1 -1.6,0.3 -2.4,0.4 0,0 1.8,-5.7 1.8,-5.7 z" style="color:black; overflow:visible; fill:#ff6600; stroke-width:1.9;"/>
<path d="m 357,30.4 c 0.7,0.5 1.4,1 2.1,1.5 0.9,0.5 1.7,1.1 2.5,1.6 0.9,0.6 1.9,1.2 2.8,1.9 1,0.7 2.1,1.3 3.1,2 1.1,0.7 2.3,1.4 3.4,2.1 1.2,0.7 2.4,1.5 3.5,2.3 1.1,0.8 2.3,1.6 3.4,2.3 1.1,0.8 2.3,1.5 3.5,2.2 0.8,0.5 0.4,0.2 1.2,0.7 0,0 -4,4.5 -4,4.5 v 0 c -0.9,-0.5 -0.4,-0.2 -1.3,-0.7 -1.2,-0.7 -2.4,-1.5 -3.6,-2.3 -1.1,-0.8 -2.3,-1.6 -3.4,-2.3 -1.1,-0.7 -2.2,-1.5 -3.4,-2.2 -1.2,-0.7 -2.3,-1.4 -3.5,-2.1 -1.1,-0.7 -2.1,-1.3 -3.2,-2 -0.9,-0.6 -1.8,-1.2 -2.7,-1.8 -0.9,-0.6 -1.7,-1.1 -2.6,-1.7 -0.7,-0.5 -1.4,-0.9 -2.1,-1.4 0,0 4.2,-4.3 4.2,-4.3 z" style="color:black; overflow:visible; fill:#ff6600; stroke-width:1.9;"/>
<text x="241.1" y="26.5" style="font-family:Georgia; font-size:24px; font-style:italic; color:black; overflow:visible; fill:#ff6600; stroke-width:0.5px;">Standardize</text>
<text x="50" y="168.6" style="font-family:Georgia; font-size:20px; font-style:italic; color:black; overflow:visible; fill:#ff6600; stroke-width:0.5px;">A Normal Distribution</text>
<text x="297.3" y="168.6" style="font-family:Georgia; font-size:20px; font-style:italic; color:black; overflow:visible; fill:#005c94; stroke-width:0.5px;">The Standard Normal Distribution</text>
<g transform="translate(159.024,-281.485)"/>
</svg>
